<?xml version="1.0" encoding="iso-8859-1"?>
<!-- Uploaded to: SVG Repo, www.svgrepo.com, Generator: SVG Repo Mixer Tools -->
<svg fill="#000000" version="1.1" id="Layer_1" xmlns="http://www.w3.org/2000/svg" xmlns:xlink="http://www.w3.org/1999/xlink" 
	 viewBox="0 0 512 512" xml:space="preserve">
<g>
	<g>
		<path d="M304.039,424.229c0-0.107,0.007-0.212,0.007-0.32c0-24.008-17.698-43.958-40.732-47.492v-8.613h-15.673v8.8
			c-22.521,3.97-39.688,23.664-39.688,47.305c0,0.108,0.007,0.212,0.008,0.32h-0.026v48.065h15.673v-12.932
			c6.593,6.029,14.871,10.237,24.033,11.851v16.754h15.673V471.4c9.579-1.469,18.234-5.78,25.078-12.039v12.933h15.673v-48.065
			H304.039z M234.324,434.259l-5.907,5.907c-2.822-4.767-4.449-10.324-4.449-16.257c0-5.932,1.627-11.489,4.449-16.259l5.907,5.907
			c-1.504,3.137-2.348,6.647-2.348,10.351S232.82,431.123,234.324,434.259z M256,455.941c-5.932,0-11.489-1.627-16.259-4.449
			l5.908-5.907c3.137,1.504,6.647,2.348,10.352,2.348c3.704,0,7.215-0.844,10.351-2.348l5.907,5.907
			C267.49,454.314,261.932,455.941,256,455.941z M247.992,423.909c0-4.416,3.592-8.008,8.008-8.008s8.008,3.592,8.008,8.008
			c0,4.416-3.592,8.008-8.008,8.008S247.992,428.325,247.992,423.909z M266.351,402.233c-3.137-1.504-6.647-2.348-10.351-2.348
			s-7.215,0.844-10.352,2.348l-5.907-5.908c4.77-2.822,10.327-4.449,16.259-4.449s11.489,1.627,16.259,4.449L266.351,402.233z
			 M283.582,440.169l-5.907-5.909c1.504-3.137,2.348-6.647,2.348-10.351c0-3.704-0.844-7.215-2.348-10.351l5.907-5.907
			c2.822,4.77,4.449,10.327,4.449,16.259S286.404,435.4,283.582,440.169z"/>
	</g>
</g>
<g>
	<g>
		<path d="M375.118,336.339v-8.241h-15.673v8.522c-22.369,4.094-39.382,23.715-39.382,47.249c0,1.614,0.083,3.209,0.239,4.782
			l0.482,42.979l15.673-0.176l-0.13-11.597c6.418,5.675,14.355,9.658,23.118,11.261v16.098h15.674v-15.816
			c9.558-1.403,18.208-5.629,25.078-11.803v11.945h15.673v-42.456c0.185-1.715,0.287-3.453,0.287-5.217
			C416.158,359.756,398.302,339.742,375.118,336.339z M346.436,394.22l-5.907,5.907c-2.823-4.769-4.45-10.326-4.45-16.258
			s1.627-11.489,4.449-16.259l5.908,5.908c-1.504,3.137-2.348,6.647-2.348,10.351S344.932,391.084,346.436,394.22z M368.11,351.838
			c5.932,0,11.489,1.627,16.259,4.449l-5.907,5.907c-3.137-1.504-6.647-2.348-10.352-2.348c-3.704,0-7.215,0.844-10.352,2.348
			l-5.907-5.907C356.622,353.465,362.178,351.838,368.11,351.838z M376.118,383.869c0,4.416-3.592,8.009-8.008,8.009
			s-8.008-3.593-8.008-8.009s3.592-8.008,8.008-8.008S376.118,379.454,376.118,383.869z M368.111,415.902
			c-5.932,0-11.489-1.627-16.259-4.449l5.907-5.907c3.137,1.504,6.648,2.348,10.352,2.348c3.704,0,7.215-0.844,10.352-2.348
			l5.907,5.907C379.6,414.275,374.043,415.902,368.111,415.902z M395.693,400.128l-5.907-5.908
			c1.504-3.137,2.348-6.647,2.348-10.351s-0.844-7.215-2.348-10.351l5.907-5.907c2.822,4.769,4.449,10.326,4.449,16.258
			C400.143,389.801,398.516,395.358,395.693,400.128z"/>
	</g>
</g>
<g>
	<g>
		<path d="M151.51,336.433v-8.335h-15.673v8.412c-22.671,3.843-39.995,23.611-39.995,47.359c0,1.764,0.102,3.503,0.288,5.217v42.456
			h15.673v-11.946c6.617,5.949,14.89,10.082,24.033,11.632v15.988h15.673v-15.911c9.179-1.469,17.494-5.55,24.166-11.451
			l-0.134,11.598l15.672,0.181l0.498-43.192c0.143-1.506,0.223-3.029,0.223-4.571C191.936,359.969,174.393,340.096,151.51,336.433z
			 M122.212,394.22l-5.907,5.907c-2.821-4.769-4.448-10.326-4.448-16.258s1.627-11.489,4.448-16.258l5.907,5.907
			c-1.504,3.137-2.348,6.647-2.348,10.351S120.709,391.084,122.212,394.22z M143.889,351.838c5.932,0,11.489,1.627,16.259,4.449
			l-5.907,5.907c-3.137-1.504-6.647-2.348-10.352-2.348c-3.704,0-7.215,0.844-10.352,2.348l-5.907-5.907
			C132.4,353.465,137.957,351.838,143.889,351.838z M151.897,383.869c0,4.416-3.592,8.009-8.008,8.009
			c-4.416,0-8.008-3.593-8.008-8.009s3.592-8.008,8.008-8.008S151.897,379.454,151.897,383.869z M143.89,415.902
			c-5.932,0-11.489-1.627-16.259-4.449l5.907-5.907c3.137,1.504,6.647,2.348,10.352,2.348c3.704,0,7.215-0.844,10.352-2.348
			l5.907,5.907C155.378,414.275,149.822,415.902,143.89,415.902z M171.473,400.128l-5.908-5.908
			c1.504-3.137,2.348-6.647,2.348-10.351s-0.844-7.215-2.348-10.351l5.908-5.908c2.822,4.77,4.449,10.327,4.449,16.259
			S174.295,395.358,171.473,400.128z"/>
	</g>
</g>
<g>
	<g>
		<path d="M263.314,103.823v-7.693h-15.673v7.758c-62.315,4.305-111.704,56.343-111.758,119.719h-0.046v96.131h15.673v-36.836
			c19.375,34.068,54.925,57.785,96.131,60.631v15.911h15.673V343.6c41.13-2.484,76.739-25.753,96.438-59.421l-0.307,35.492
			l15.672,0.136l0.766-88.693c0.149-2.449,0.235-4.915,0.235-7.401C376.118,159.935,326.154,107.617,263.314,103.823z
			 M256.001,119.608c25.825,0,49.481,9.456,67.695,25.083l-5.68,5.68c-16.75-14.186-38.399-22.754-62.016-22.754
			c-23.617,0-45.266,8.569-62.016,22.754l-5.679-5.68C206.52,129.065,230.175,119.608,256.001,119.608z M336.079,223.712
			c0,44.155-35.924,80.079-80.079,80.079s-80.079-35.924-80.079-80.079c0-44.156,35.924-80.08,80.079-80.08
			S336.079,179.555,336.079,223.712z M176.981,291.406c-15.626-18.215-25.083-41.87-25.083-67.695
			c0-25.826,9.455-49.481,25.083-67.696l5.679,5.679c-14.186,16.75-22.754,38.399-22.754,62.017
			c0,23.617,8.569,45.266,22.754,62.016L176.981,291.406z M256,327.814c-25.825,0-49.48-9.455-67.695-25.083l5.679-5.679
			c16.75,14.186,38.399,22.754,62.016,22.754s45.266-8.569,62.016-22.754l5.679,5.679C305.48,318.357,281.825,327.814,256,327.814z
			 M335.019,291.406l-5.679-5.679c14.186-16.75,22.754-38.399,22.754-62.016c0-23.617-8.569-45.267-22.754-62.017l5.679-5.679
			c15.626,18.215,25.083,41.87,25.083,67.696C360.102,249.536,350.647,273.193,335.019,291.406z"/>
	</g>
</g>
<g>
	<g>
		<path d="M278.706,39.706c-2.465-7.127-8.192-12.742-15.391-15.05V0h-15.674v25.017c-6.707,2.497-12.002,7.91-14.346,14.689h-9.686
			V55.38h9.689c2.347,6.774,7.639,12.182,14.343,14.679v17.713h15.673V70.419c7.195-2.305,12.921-7.917,15.388-15.039h8.644V39.706
			H278.706z M256,55.546c-4.416,0-8.008-3.592-8.008-8.008c0-4.416,3.592-8.008,8.008-8.008s8.008,3.592,8.008,8.008
			C264.008,51.953,260.416,55.546,256,55.546z"/>
	</g>
</g>
<g>
	<g>
		<path d="M256,175.664c-26.493,0-48.048,21.554-48.048,48.048s21.554,48.047,48.048,48.047c26.493,0,48.047-21.553,48.047-48.047
			S282.493,175.664,256,175.664z M247.641,254.63c-6.458-1.748-12.115-5.466-16.276-10.472l16.276-12.409V254.63z M247.641,211.609
			l-23.178,17.672c-0.319-1.81-0.494-3.669-0.494-5.568c-0.001-14.772,10.052-27.232,23.672-30.92V211.609z M263.314,254.891V231.44
			l17.288,12.758C276.221,249.451,270.19,253.278,263.314,254.891z M287.516,229.395l-24.202-17.86v-19.003
			c14.148,3.32,24.717,16.035,24.717,31.18C288.031,225.652,287.849,227.548,287.516,229.395z"/>
	</g>
</g>
<g>
	<g>
		<path d="M264.503,152.138l-1.872,15.906c6.768,0.796,13.257,2.798,19.289,5.951l7.419-14.195
			C281.571,155.741,273.216,153.163,264.503,152.138z"/>
	</g>
</g>
<g>
	<g>
		<path d="M296.793,164.289l-9.074,13.197c5.617,3.863,10.44,8.659,14.333,14.257l13.148-9.146
			C310.2,175.409,304.007,169.249,296.793,164.289z"/>
	</g>
</g>
<g>
	<g>
		<path d="M319.727,190.022l-14.153,7.496c3.185,6.014,5.222,12.491,6.057,19.252l15.895-1.961
			C326.453,206.106,323.828,197.766,319.727,190.022z"/>
	</g>
</g>
<g>
	<g>
		<path d="M287.857,269.842c-5.611,3.883-11.802,6.676-18.401,8.301l3.83,15.551c8.497-2.092,16.467-5.686,23.686-10.683
			L287.857,269.842z"/>
	</g>
</g>
<g>
	<g>
		<path d="M218.874,265.71l-10.612,11.994c6.577,5.818,14.057,10.337,22.233,13.432l5.669-14.979
			C229.809,273.753,223.992,270.238,218.874,265.71z"/>
	</g>
</g>
<g>
	<g>
		<path d="M262.801,279.359c-6.693,0.81-13.643,0.403-20.179-1.196l-3.808,15.557c5.594,1.369,11.376,2.063,17.184,2.063
			c2.915,0,5.85-0.177,8.725-0.523L262.801,279.359z"/>
	</g>
</g>
<g>
	<g>
		<path d="M305.654,249.755c-3.167,6.024-7.363,11.376-12.472,15.907l10.628,11.982c6.56-5.819,11.949-12.694,16.019-20.435
			L305.654,249.755z"/>
	</g>
</g>
<g>
	<g>
		<path d="M312.424,223.608v0.103c0,6.85-1.397,13.538-3.801,19.875l14.797,5.68c3.095-8.16,4.678-16.758,4.678-25.616v-0.043
			H312.424z"/>
	</g>
</g>
<g>
	<g>
		<path d="M203.597,243.663l-14.966,5.702c3.113,8.168,7.646,15.637,13.476,22.199l11.972-10.638
			C209.543,255.82,206.016,250.013,203.597,243.663z"/>
	</g>
</g>
<g>
	<g>
		<path d="M196.608,182.873c-4.98,7.232-8.557,15.21-10.631,23.712l15.561,3.795c1.61-6.604,4.39-12.801,8.261-18.424
			L196.608,182.873z"/>
	</g>
</g>
<g>
	<g>
		<path d="M199.944,223.712c0-2.23,0.133-4.477,0.393-6.678l-15.905-1.884c-0.334,2.824-0.504,5.704-0.504,8.562
			c0.001,5.863,0.708,11.699,2.103,17.344l15.548-3.843C200.495,232.823,199.944,228.281,199.944,223.712z"/>
	</g>
</g>
<g>
	<g>
		<path d="M255.829,151.641c-8.795,0.021-17.388,1.609-25.538,4.723l5.715,14.961c6.331-2.418,13.014-3.652,19.861-3.669
			L255.829,151.641z"/>
	</g>
</g>
<g>
	<g>
		<path d="M222.363,159.957c-7.73,4.087-14.593,9.491-20.397,16.062l12.004,10.602c4.52-5.117,9.862-9.324,15.877-12.503
			L222.363,159.957z"/>
	</g>
</g>
<g>
	<g>
		<rect x="135.837" y="456.62" width="15.673" height="15.673"/>
	</g>
</g>
<g>
	<g>
		<rect x="247.641" y="496.327" width="15.673" height="15.673"/>
	</g>
</g>
<g>
	<g>
		<rect x="359.445" y="456.62" width="15.673" height="15.673"/>
	</g>
</g>
<g>
	<g>
		<rect x="400.196" y="439.902" width="15.673" height="16.718"/>
	</g>
</g>
<g>
	<g>
		<rect x="320.784" y="439.902" width="15.673" height="16.718"/>
	</g>
</g>
<g>
	<g>
		<rect x="175.543" y="439.902" width="15.673" height="16.718"/>
	</g>
</g>
<g>
	<g>
		<rect x="96.131" y="439.902" width="15.673" height="16.718"/>
	</g>
</g>
<g>
	<g>
		<rect x="288.392" y="479.608" width="15.673" height="16.718"/>
	</g>
</g>
<g>
	<g>
		<rect x="207.935" y="479.608" width="15.673" height="16.718"/>
	</g>
</g>
</svg>